# xmcd
# Copyright (C) 1995-1998 Ti Kan
#
# Track frame offsets:
#       150
#       14677
#       27539
#
# Disc length: 554 seconds
#
# Revision: 0
# Processed by: cddbd v1.5.2PL0 Copyright (c) Steve Scherf et al.
# Submitted via: CD-Transfer v1.0
#
DISCID=21022803
DTITLE=Die Kufsteiner - 
DYEAR=1900
DGENRE=
TTITLE0=A Stückerl Heile Welt
TTITLE1=Eine Insel Für Uns Zwei
TTITLE2=Lamore Conte
EXTD=
EXTT0=
EXTT1=
EXTT2=
PLAYORDER=
